<mxfile host="Electron" agent="Mozilla/5.0 (Windows NT 10.0; Win64; x64) AppleWebKit/537.36 (KHTML, like Gecko) draw.io/26.1.1 Chrome/132.0.6834.210 Electron/34.3.3 Safari/537.36" version="26.1.1">
  <diagram name="Page-1" id="vuDZ_8uO9_apmF-_QB4K">
    <mxGraphModel dx="472" dy="820" grid="1" gridSize="10" guides="1" tooltips="1" connect="1" arrows="1" fold="1" page="1" pageScale="1" pageWidth="850" pageHeight="1100" math="0" shadow="0">
      <root>
        <mxCell id="0" />
        <mxCell id="1" parent="0" />
        <mxCell id="RBuKfk1jarJv9YZ0i4Ic-3" value="" style="edgeStyle=orthogonalEdgeStyle;rounded=0;orthogonalLoop=1;jettySize=auto;html=1;" parent="1" source="RBuKfk1jarJv9YZ0i4Ic-1" target="RBuKfk1jarJv9YZ0i4Ic-2" edge="1">
          <mxGeometry relative="1" as="geometry">
            <Array as="points">
              <mxPoint x="40" y="130" />
              <mxPoint x="215" y="130" />
            </Array>
          </mxGeometry>
        </mxCell>
        <mxCell id="RBuKfk1jarJv9YZ0i4Ic-1" value="begin" style="ellipse;whiteSpace=wrap;html=1;" parent="1" vertex="1">
          <mxGeometry x="175" y="10" width="100" height="50" as="geometry" />
        </mxCell>
        <mxCell id="RBuKfk1jarJv9YZ0i4Ic-2" value="Declarations&lt;div&gt;&lt;div&gt;&lt;span style=&quot;white-space: pre;&quot;&gt;&#x9;&lt;/span&gt;string HEADER_MESSAGE = &quot;Hazel&#39;s Housecleaning Service Costs&quot;&lt;br&gt;&lt;div&gt;&lt;span style=&quot;white-space: pre;&quot;&gt;&#x9;&lt;/span&gt;string NAME_PROMPT = &quot;Please enter customer&#39;s name or ZZZZ to quit: &quot;&lt;/div&gt;&lt;div&gt;&lt;span style=&quot;white-space: pre;&quot;&gt;&#x9;&lt;/span&gt;string NO_MORE_NAMES&lt;span style=&quot;background-color: transparent; color: light-dark(rgb(0, 0, 0), rgb(255, 255, 255));&quot;&gt;&amp;nbsp;= &quot; This program is now complete.&quot;&lt;/span&gt;&lt;/div&gt;&lt;div&gt;&lt;span style=&quot;white-space: pre;&quot;&gt;&#x9;&lt;/span&gt;string QUIT = &quot;ZZZZ&quot;&lt;/div&gt;&lt;div&gt;&lt;span style=&quot;white-space: pre;&quot;&gt;&#x9;&lt;/span&gt;string BATHROOMS_PROMPT = &quot;Number of bathrooms? &quot;&lt;br&gt;&lt;/div&gt;&lt;div&gt;&lt;span style=&quot;white-space: pre;&quot;&gt;&#x9;&lt;/span&gt;string OTHER_ROOMS_PROMPT = &quot;Number of other rooms? &quot;&lt;br&gt;&lt;/div&gt;&lt;div&gt;&lt;span style=&quot;white-space: pre;&quot;&gt;&#x9;&lt;/span&gt;string OVERALL_PRICE_DISPLAY = &quot;This is the total service charge: &quot;&lt;br&gt;&lt;/div&gt;&lt;div&gt;&lt;span style=&quot;white-space: pre;&quot;&gt;&#x9;&lt;/span&gt;string BATHROOMS_PRICE_DISPLAY = &quot;This is the number of bathrooms and their price: &quot;&lt;br&gt;&lt;/div&gt;&lt;div&gt;&lt;span style=&quot;white-space: pre;&quot;&gt;&#x9;&lt;/span&gt;string OTHER_ROOMS_PRICE_DISPLAY =&quot; This is the number of other rooms and their price: &quot;&lt;br&gt;&lt;/div&gt;&lt;div&gt;&lt;span style=&quot;white-space: pre;&quot;&gt;&#x9;&lt;/span&gt;string customerName&lt;br&gt;&lt;/div&gt;&lt;div&gt;&lt;span style=&quot;white-space: pre;&quot;&gt;&#x9;&lt;/span&gt;num bathroomsPrice&lt;br&gt;&lt;/div&gt;&lt;div&gt;&lt;span style=&quot;white-space: pre;&quot;&gt;&#x9;&lt;/span&gt;num otherRoomsPrice&lt;br&gt;&lt;/div&gt;&lt;div&gt;&lt;span style=&quot;background-color: transparent; color: light-dark(rgb(0, 0, 0), rgb(255, 255, 255));&quot;&gt;&lt;span style=&quot;white-space: pre;&quot;&gt;&#x9;&lt;/span&gt;num numberBathrooms&lt;/span&gt;&lt;/div&gt;&lt;div&gt;&lt;span style=&quot;white-space: pre;&quot;&gt;&#x9;&lt;/span&gt;num numberOtherRooms&lt;br&gt;&lt;/div&gt;&lt;div&gt;&lt;span style=&quot;white-space: pre;&quot;&gt;&#x9;&lt;/span&gt;num serviceCharge&lt;br&gt;&lt;/div&gt;&lt;div&gt;&lt;span style=&quot;white-space: pre;&quot;&gt;&#x9;&lt;/span&gt;num BASE_COST = 40&lt;br&gt;&lt;/div&gt;&lt;div&gt;&lt;span style=&quot;white-space: pre;&quot;&gt;&#x9;&lt;/span&gt;num BASE_BATH_COST = 15&lt;br&gt;&lt;/div&gt;&lt;div&gt;&lt;span style=&quot;white-space: pre;&quot;&gt;&#x9;&lt;/span&gt;num BASE_OTHER_COST = 10&lt;/div&gt;&lt;/div&gt;&lt;/div&gt;" style="rounded=0;whiteSpace=wrap;html=1;align=left;" parent="1" vertex="1">
          <mxGeometry y="80" width="550" height="280" as="geometry" />
        </mxCell>
        <mxCell id="RBuKfk1jarJv9YZ0i4Ic-4" style="edgeStyle=orthogonalEdgeStyle;rounded=0;orthogonalLoop=1;jettySize=auto;html=1;exitX=0.5;exitY=1;exitDx=0;exitDy=0;" parent="1" source="RBuKfk1jarJv9YZ0i4Ic-1" target="RBuKfk1jarJv9YZ0i4Ic-1" edge="1">
          <mxGeometry relative="1" as="geometry" />
        </mxCell>
        <mxCell id="RBuKfk1jarJv9YZ0i4Ic-25" value="" style="edgeStyle=orthogonalEdgeStyle;rounded=0;orthogonalLoop=1;jettySize=auto;html=1;" parent="1" source="RBuKfk1jarJv9YZ0i4Ic-6" target="RBuKfk1jarJv9YZ0i4Ic-24" edge="1">
          <mxGeometry relative="1" as="geometry" />
        </mxCell>
        <mxCell id="RBuKfk1jarJv9YZ0i4Ic-6" value="" style="swimlane;whiteSpace=wrap;html=1;" parent="1" vertex="1">
          <mxGeometry x="15" y="410" width="180" height="60" as="geometry" />
        </mxCell>
        <mxCell id="RBuKfk1jarJv9YZ0i4Ic-23" value="houseKeeping()" style="text;html=1;align=center;verticalAlign=middle;resizable=0;points=[];autosize=1;strokeColor=none;fillColor=none;" parent="RBuKfk1jarJv9YZ0i4Ic-6" vertex="1">
          <mxGeometry x="35" y="20" width="110" height="30" as="geometry" />
        </mxCell>
        <mxCell id="RBuKfk1jarJv9YZ0i4Ic-13" value="" style="edgeStyle=orthogonalEdgeStyle;rounded=0;orthogonalLoop=1;jettySize=auto;html=1;" parent="1" source="RBuKfk1jarJv9YZ0i4Ic-10" target="RBuKfk1jarJv9YZ0i4Ic-12" edge="1">
          <mxGeometry relative="1" as="geometry" />
        </mxCell>
        <mxCell id="RBuKfk1jarJv9YZ0i4Ic-10" value="houseKeeping()" style="ellipse;whiteSpace=wrap;html=1;" parent="1" vertex="1">
          <mxGeometry x="284.25" y="660" width="120" height="50" as="geometry" />
        </mxCell>
        <mxCell id="RBuKfk1jarJv9YZ0i4Ic-85" value="" style="edgeStyle=orthogonalEdgeStyle;rounded=0;orthogonalLoop=1;jettySize=auto;html=1;" parent="1" source="RBuKfk1jarJv9YZ0i4Ic-12" target="RBuKfk1jarJv9YZ0i4Ic-81" edge="1">
          <mxGeometry relative="1" as="geometry" />
        </mxCell>
        <mxCell id="RBuKfk1jarJv9YZ0i4Ic-12" value="print&lt;div&gt;HEADER_MESSAGE&lt;/div&gt;" style="shape=parallelogram;perimeter=parallelogramPerimeter;whiteSpace=wrap;html=1;fixedSize=1;" parent="1" vertex="1">
          <mxGeometry x="263" y="730" width="162.5" height="40" as="geometry" />
        </mxCell>
        <mxCell id="RBuKfk1jarJv9YZ0i4Ic-27" style="edgeStyle=orthogonalEdgeStyle;rounded=0;orthogonalLoop=1;jettySize=auto;html=1;entryX=0;entryY=0.5;entryDx=0;entryDy=0;" parent="1" source="RBuKfk1jarJv9YZ0i4Ic-24" target="RBuKfk1jarJv9YZ0i4Ic-26" edge="1">
          <mxGeometry relative="1" as="geometry" />
        </mxCell>
        <mxCell id="RBuKfk1jarJv9YZ0i4Ic-62" value="" style="edgeStyle=orthogonalEdgeStyle;rounded=0;orthogonalLoop=1;jettySize=auto;html=1;entryX=0.5;entryY=0;entryDx=0;entryDy=0;" parent="1" source="RBuKfk1jarJv9YZ0i4Ic-24" target="RBuKfk1jarJv9YZ0i4Ic-60" edge="1">
          <mxGeometry relative="1" as="geometry">
            <mxPoint x="105" y="600" as="targetPoint" />
          </mxGeometry>
        </mxCell>
        <mxCell id="RBuKfk1jarJv9YZ0i4Ic-24" value="customerName not equal to QUIT?" style="rhombus;whiteSpace=wrap;html=1;" parent="1" vertex="1">
          <mxGeometry y="497.5" width="210" height="85" as="geometry" />
        </mxCell>
        <mxCell id="RBuKfk1jarJv9YZ0i4Ic-26" value="" style="swimlane;whiteSpace=wrap;html=1;" parent="1" vertex="1">
          <mxGeometry x="255" y="510" width="120" height="60" as="geometry" />
        </mxCell>
        <mxCell id="RBuKfk1jarJv9YZ0i4Ic-33" value="detailLoop()" style="text;html=1;align=center;verticalAlign=middle;resizable=0;points=[];autosize=1;strokeColor=none;fillColor=none;" parent="RBuKfk1jarJv9YZ0i4Ic-26" vertex="1">
          <mxGeometry x="15" y="25" width="90" height="30" as="geometry" />
        </mxCell>
        <mxCell id="RBuKfk1jarJv9YZ0i4Ic-30" value="Yes" style="text;html=1;align=center;verticalAlign=middle;resizable=0;points=[];autosize=1;strokeColor=none;fillColor=none;" parent="1" vertex="1">
          <mxGeometry x="205" y="520" width="40" height="30" as="geometry" />
        </mxCell>
        <mxCell id="RBuKfk1jarJv9YZ0i4Ic-31" value="return" style="ellipse;whiteSpace=wrap;html=1;" parent="1" vertex="1">
          <mxGeometry x="284.25" y="910" width="120" height="50" as="geometry" />
        </mxCell>
        <mxCell id="RBuKfk1jarJv9YZ0i4Ic-39" value="" style="edgeStyle=orthogonalEdgeStyle;rounded=0;orthogonalLoop=1;jettySize=auto;html=1;" parent="1" source="RBuKfk1jarJv9YZ0i4Ic-34" target="RBuKfk1jarJv9YZ0i4Ic-35" edge="1">
          <mxGeometry relative="1" as="geometry" />
        </mxCell>
        <mxCell id="RBuKfk1jarJv9YZ0i4Ic-34" value="detailLoop()" style="ellipse;whiteSpace=wrap;html=1;" parent="1" vertex="1">
          <mxGeometry x="631.87" y="20" width="120" height="50" as="geometry" />
        </mxCell>
        <mxCell id="RBuKfk1jarJv9YZ0i4Ic-41" value="" style="edgeStyle=orthogonalEdgeStyle;rounded=0;orthogonalLoop=1;jettySize=auto;html=1;" parent="1" source="RBuKfk1jarJv9YZ0i4Ic-35" target="RBuKfk1jarJv9YZ0i4Ic-40" edge="1">
          <mxGeometry relative="1" as="geometry" />
        </mxCell>
        <mxCell id="RBuKfk1jarJv9YZ0i4Ic-35" value="print&lt;div&gt;BATHROOMS_PROMPT&lt;/div&gt;" style="shape=parallelogram;perimeter=parallelogramPerimeter;whiteSpace=wrap;html=1;fixedSize=1;" parent="1" vertex="1">
          <mxGeometry x="603.12" y="90" width="177.5" height="40" as="geometry" />
        </mxCell>
        <mxCell id="RBuKfk1jarJv9YZ0i4Ic-43" value="" style="edgeStyle=orthogonalEdgeStyle;rounded=0;orthogonalLoop=1;jettySize=auto;html=1;" parent="1" source="RBuKfk1jarJv9YZ0i4Ic-40" target="RBuKfk1jarJv9YZ0i4Ic-42" edge="1">
          <mxGeometry relative="1" as="geometry" />
        </mxCell>
        <mxCell id="RBuKfk1jarJv9YZ0i4Ic-40" value="input&lt;br&gt;&lt;div&gt;numberBathrooms&lt;/div&gt;" style="shape=parallelogram;perimeter=parallelogramPerimeter;whiteSpace=wrap;html=1;fixedSize=1;" parent="1" vertex="1">
          <mxGeometry x="623.12" y="145" width="137.5" height="40" as="geometry" />
        </mxCell>
        <mxCell id="RBuKfk1jarJv9YZ0i4Ic-45" value="" style="edgeStyle=orthogonalEdgeStyle;rounded=0;orthogonalLoop=1;jettySize=auto;html=1;" parent="1" source="RBuKfk1jarJv9YZ0i4Ic-42" target="RBuKfk1jarJv9YZ0i4Ic-44" edge="1">
          <mxGeometry relative="1" as="geometry" />
        </mxCell>
        <mxCell id="RBuKfk1jarJv9YZ0i4Ic-42" value="print&lt;div&gt;OTHER_ROOMS_PROMPT&lt;/div&gt;" style="shape=parallelogram;perimeter=parallelogramPerimeter;whiteSpace=wrap;html=1;fixedSize=1;" parent="1" vertex="1">
          <mxGeometry x="595" y="205" width="193.75" height="40" as="geometry" />
        </mxCell>
        <mxCell id="RBuKfk1jarJv9YZ0i4Ic-91" value="" style="edgeStyle=orthogonalEdgeStyle;rounded=0;orthogonalLoop=1;jettySize=auto;html=1;" parent="1" source="RBuKfk1jarJv9YZ0i4Ic-44" target="RBuKfk1jarJv9YZ0i4Ic-77" edge="1">
          <mxGeometry relative="1" as="geometry" />
        </mxCell>
        <mxCell id="RBuKfk1jarJv9YZ0i4Ic-44" value="input&lt;br&gt;&lt;div&gt;numberOtherRooms&lt;/div&gt;" style="shape=parallelogram;perimeter=parallelogramPerimeter;whiteSpace=wrap;html=1;fixedSize=1;" parent="1" vertex="1">
          <mxGeometry x="620" y="260" width="143.75" height="40" as="geometry" />
        </mxCell>
        <mxCell id="RBuKfk1jarJv9YZ0i4Ic-72" value="" style="edgeStyle=orthogonalEdgeStyle;rounded=0;orthogonalLoop=1;jettySize=auto;html=1;" parent="1" source="RBuKfk1jarJv9YZ0i4Ic-60" target="RBuKfk1jarJv9YZ0i4Ic-71" edge="1">
          <mxGeometry relative="1" as="geometry" />
        </mxCell>
        <mxCell id="RBuKfk1jarJv9YZ0i4Ic-60" value="" style="swimlane;whiteSpace=wrap;html=1;" parent="1" vertex="1">
          <mxGeometry x="15" y="610" width="180" height="60" as="geometry" />
        </mxCell>
        <mxCell id="RBuKfk1jarJv9YZ0i4Ic-63" value="endOfJob()" style="text;html=1;align=center;verticalAlign=middle;resizable=0;points=[];autosize=1;strokeColor=none;fillColor=none;" parent="RBuKfk1jarJv9YZ0i4Ic-60" vertex="1">
          <mxGeometry x="55" y="25" width="80" height="30" as="geometry" />
        </mxCell>
        <mxCell id="RBuKfk1jarJv9YZ0i4Ic-65" value="No" style="text;html=1;align=center;verticalAlign=middle;resizable=0;points=[];autosize=1;strokeColor=none;fillColor=none;" parent="1" vertex="1">
          <mxGeometry x="95" y="575" width="40" height="30" as="geometry" />
        </mxCell>
        <mxCell id="RBuKfk1jarJv9YZ0i4Ic-68" value="" style="edgeStyle=orthogonalEdgeStyle;rounded=0;orthogonalLoop=1;jettySize=auto;html=1;" parent="1" source="RBuKfk1jarJv9YZ0i4Ic-66" target="RBuKfk1jarJv9YZ0i4Ic-67" edge="1">
          <mxGeometry relative="1" as="geometry" />
        </mxCell>
        <mxCell id="RBuKfk1jarJv9YZ0i4Ic-66" value="endOfJob()" style="ellipse;whiteSpace=wrap;html=1;" parent="1" vertex="1">
          <mxGeometry x="45" y="800" width="120" height="50" as="geometry" />
        </mxCell>
        <mxCell id="RBuKfk1jarJv9YZ0i4Ic-70" value="" style="edgeStyle=orthogonalEdgeStyle;rounded=0;orthogonalLoop=1;jettySize=auto;html=1;" parent="1" source="RBuKfk1jarJv9YZ0i4Ic-67" target="RBuKfk1jarJv9YZ0i4Ic-69" edge="1">
          <mxGeometry relative="1" as="geometry" />
        </mxCell>
        <mxCell id="RBuKfk1jarJv9YZ0i4Ic-67" value="print&lt;div&gt;NO_MORE_NAMES&lt;/div&gt;" style="shape=parallelogram;perimeter=parallelogramPerimeter;whiteSpace=wrap;html=1;fixedSize=1;" parent="1" vertex="1">
          <mxGeometry x="32.5" y="875" width="145" height="40" as="geometry" />
        </mxCell>
        <mxCell id="RBuKfk1jarJv9YZ0i4Ic-69" value="return" style="ellipse;whiteSpace=wrap;html=1;" parent="1" vertex="1">
          <mxGeometry x="45" y="935" width="120" height="50" as="geometry" />
        </mxCell>
        <mxCell id="RBuKfk1jarJv9YZ0i4Ic-71" value="end" style="ellipse;whiteSpace=wrap;html=1;" parent="1" vertex="1">
          <mxGeometry x="45" y="695" width="120" height="50" as="geometry" />
        </mxCell>
        <mxCell id="RBuKfk1jarJv9YZ0i4Ic-92" value="" style="edgeStyle=orthogonalEdgeStyle;rounded=0;orthogonalLoop=1;jettySize=auto;html=1;" parent="1" source="RBuKfk1jarJv9YZ0i4Ic-77" target="RBuKfk1jarJv9YZ0i4Ic-78" edge="1">
          <mxGeometry relative="1" as="geometry" />
        </mxCell>
        <mxCell id="RBuKfk1jarJv9YZ0i4Ic-77" value="bathroomsPrice =&amp;nbsp;&lt;div&gt;BASE_BATH_COST * numberBathrooms&lt;/div&gt;" style="rounded=0;whiteSpace=wrap;html=1;" parent="1" vertex="1">
          <mxGeometry x="577.49" y="320" width="228.76" height="40" as="geometry" />
        </mxCell>
        <mxCell id="RBuKfk1jarJv9YZ0i4Ic-89" value="" style="edgeStyle=orthogonalEdgeStyle;rounded=0;orthogonalLoop=1;jettySize=auto;html=1;" parent="1" source="RBuKfk1jarJv9YZ0i4Ic-78" target="RBuKfk1jarJv9YZ0i4Ic-88" edge="1">
          <mxGeometry relative="1" as="geometry" />
        </mxCell>
        <mxCell id="RBuKfk1jarJv9YZ0i4Ic-78" value="otherRoomsPrice =&amp;nbsp;&lt;div&gt;BASE_OTHER_COST * numberOtherRooms&lt;/div&gt;" style="rounded=0;whiteSpace=wrap;html=1;" parent="1" vertex="1">
          <mxGeometry x="566.86" y="380" width="250" height="40" as="geometry" />
        </mxCell>
        <mxCell id="RBuKfk1jarJv9YZ0i4Ic-80" value="" style="endArrow=classic;html=1;rounded=0;" parent="1" edge="1">
          <mxGeometry width="50" height="50" relative="1" as="geometry">
            <mxPoint x="375" y="540" as="sourcePoint" />
            <mxPoint x="105" y="480" as="targetPoint" />
            <Array as="points">
              <mxPoint x="395" y="540" />
              <mxPoint x="395" y="480" />
            </Array>
          </mxGeometry>
        </mxCell>
        <mxCell id="RBuKfk1jarJv9YZ0i4Ic-86" value="" style="edgeStyle=orthogonalEdgeStyle;rounded=0;orthogonalLoop=1;jettySize=auto;html=1;" parent="1" source="RBuKfk1jarJv9YZ0i4Ic-81" target="RBuKfk1jarJv9YZ0i4Ic-82" edge="1">
          <mxGeometry relative="1" as="geometry" />
        </mxCell>
        <mxCell id="RBuKfk1jarJv9YZ0i4Ic-81" value="print&lt;div&gt;NAME_PROMPT&lt;/div&gt;" style="shape=parallelogram;perimeter=parallelogramPerimeter;whiteSpace=wrap;html=1;fixedSize=1;" parent="1" vertex="1">
          <mxGeometry x="263" y="790" width="162.5" height="40" as="geometry" />
        </mxCell>
        <mxCell id="RBuKfk1jarJv9YZ0i4Ic-87" value="" style="edgeStyle=orthogonalEdgeStyle;rounded=0;orthogonalLoop=1;jettySize=auto;html=1;" parent="1" source="RBuKfk1jarJv9YZ0i4Ic-82" target="RBuKfk1jarJv9YZ0i4Ic-31" edge="1">
          <mxGeometry relative="1" as="geometry" />
        </mxCell>
        <mxCell id="RBuKfk1jarJv9YZ0i4Ic-82" value="input&lt;div&gt;customerName&lt;/div&gt;" style="shape=parallelogram;perimeter=parallelogramPerimeter;whiteSpace=wrap;html=1;fixedSize=1;" parent="1" vertex="1">
          <mxGeometry x="263" y="850" width="162.5" height="40" as="geometry" />
        </mxCell>
        <mxCell id="RBuKfk1jarJv9YZ0i4Ic-95" value="" style="edgeStyle=orthogonalEdgeStyle;rounded=0;orthogonalLoop=1;jettySize=auto;html=1;" parent="1" source="RBuKfk1jarJv9YZ0i4Ic-88" target="RBuKfk1jarJv9YZ0i4Ic-94" edge="1">
          <mxGeometry relative="1" as="geometry" />
        </mxCell>
        <mxCell id="RBuKfk1jarJv9YZ0i4Ic-88" value="serviceCharge =&amp;nbsp;&lt;div&gt;BASE_COST + otherRoomsPrice + bathroomsPrice&lt;/div&gt;" style="rounded=0;whiteSpace=wrap;html=1;" parent="1" vertex="1">
          <mxGeometry x="550" y="440" width="283.75" height="40" as="geometry" />
        </mxCell>
        <mxCell id="RBuKfk1jarJv9YZ0i4Ic-98" value="" style="edgeStyle=orthogonalEdgeStyle;rounded=0;orthogonalLoop=1;jettySize=auto;html=1;" parent="1" source="RBuKfk1jarJv9YZ0i4Ic-90" target="RBuKfk1jarJv9YZ0i4Ic-97" edge="1">
          <mxGeometry relative="1" as="geometry" />
        </mxCell>
        <mxCell id="RBuKfk1jarJv9YZ0i4Ic-90" value="print&lt;div&gt;&lt;span style=&quot;background-color: transparent; color: light-dark(rgb(0, 0, 0), rgb(255, 255, 255));&quot;&gt;BATHROOMS_PRICE_DISPLAY + numberBathrooms + &quot;, $&quot; bathroomsPrice&amp;nbsp;&lt;/span&gt;&lt;/div&gt;" style="shape=parallelogram;perimeter=parallelogramPerimeter;whiteSpace=wrap;html=1;fixedSize=1;" parent="1" vertex="1">
          <mxGeometry x="564.68" y="560" width="254.38" height="50" as="geometry" />
        </mxCell>
        <mxCell id="RBuKfk1jarJv9YZ0i4Ic-96" value="" style="edgeStyle=orthogonalEdgeStyle;rounded=0;orthogonalLoop=1;jettySize=auto;html=1;" parent="1" source="RBuKfk1jarJv9YZ0i4Ic-94" target="RBuKfk1jarJv9YZ0i4Ic-90" edge="1">
          <mxGeometry relative="1" as="geometry" />
        </mxCell>
        <mxCell id="RBuKfk1jarJv9YZ0i4Ic-94" value="print&lt;br&gt;&lt;div&gt;customerName&lt;/div&gt;" style="shape=parallelogram;perimeter=parallelogramPerimeter;whiteSpace=wrap;html=1;fixedSize=1;" parent="1" vertex="1">
          <mxGeometry x="610.62" y="500" width="162.5" height="40" as="geometry" />
        </mxCell>
        <mxCell id="RBuKfk1jarJv9YZ0i4Ic-100" value="" style="edgeStyle=orthogonalEdgeStyle;rounded=0;orthogonalLoop=1;jettySize=auto;html=1;" parent="1" source="RBuKfk1jarJv9YZ0i4Ic-97" target="RBuKfk1jarJv9YZ0i4Ic-99" edge="1">
          <mxGeometry relative="1" as="geometry" />
        </mxCell>
        <mxCell id="RBuKfk1jarJv9YZ0i4Ic-97" value="print&lt;div&gt;&lt;span style=&quot;background-color: transparent; color: light-dark(rgb(0, 0, 0), rgb(255, 255, 255));&quot;&gt;OTHER_ROOMS_PRICE_DISPLAY + numberOtherRooms + &quot;, $&quot; otherRoomsPrice&amp;nbsp;&lt;/span&gt;&lt;/div&gt;" style="shape=parallelogram;perimeter=parallelogramPerimeter;whiteSpace=wrap;html=1;fixedSize=1;" parent="1" vertex="1">
          <mxGeometry x="553.9" y="630" width="275.94" height="50" as="geometry" />
        </mxCell>
        <mxCell id="RBuKfk1jarJv9YZ0i4Ic-105" value="" style="edgeStyle=orthogonalEdgeStyle;rounded=0;orthogonalLoop=1;jettySize=auto;html=1;" parent="1" source="RBuKfk1jarJv9YZ0i4Ic-99" target="RBuKfk1jarJv9YZ0i4Ic-101" edge="1">
          <mxGeometry relative="1" as="geometry" />
        </mxCell>
        <mxCell id="RBuKfk1jarJv9YZ0i4Ic-99" value="print&lt;div&gt;&lt;span style=&quot;background-color: transparent; color: light-dark(rgb(0, 0, 0), rgb(255, 255, 255));&quot;&gt;OVERALL_PRICE_DISPLAY + &quot;$&quot; + serviceCharge&lt;/span&gt;&lt;/div&gt;" style="shape=parallelogram;perimeter=parallelogramPerimeter;whiteSpace=wrap;html=1;fixedSize=1;" parent="1" vertex="1">
          <mxGeometry x="553.89" y="700" width="275.94" height="50" as="geometry" />
        </mxCell>
        <mxCell id="RBuKfk1jarJv9YZ0i4Ic-106" value="" style="edgeStyle=orthogonalEdgeStyle;rounded=0;orthogonalLoop=1;jettySize=auto;html=1;" parent="1" source="RBuKfk1jarJv9YZ0i4Ic-101" target="RBuKfk1jarJv9YZ0i4Ic-102" edge="1">
          <mxGeometry relative="1" as="geometry" />
        </mxCell>
        <mxCell id="RBuKfk1jarJv9YZ0i4Ic-101" value="print&lt;div&gt;NAME_PROMPT&lt;/div&gt;" style="shape=parallelogram;perimeter=parallelogramPerimeter;whiteSpace=wrap;html=1;fixedSize=1;" parent="1" vertex="1">
          <mxGeometry x="610.61" y="770" width="162.5" height="40" as="geometry" />
        </mxCell>
        <mxCell id="RBuKfk1jarJv9YZ0i4Ic-107" value="" style="edgeStyle=orthogonalEdgeStyle;rounded=0;orthogonalLoop=1;jettySize=auto;html=1;" parent="1" source="RBuKfk1jarJv9YZ0i4Ic-102" target="RBuKfk1jarJv9YZ0i4Ic-103" edge="1">
          <mxGeometry relative="1" as="geometry" />
        </mxCell>
        <mxCell id="RBuKfk1jarJv9YZ0i4Ic-102" value="input&lt;div&gt;customerName&lt;/div&gt;" style="shape=parallelogram;perimeter=parallelogramPerimeter;whiteSpace=wrap;html=1;fixedSize=1;" parent="1" vertex="1">
          <mxGeometry x="610.61" y="830" width="162.5" height="40" as="geometry" />
        </mxCell>
        <mxCell id="RBuKfk1jarJv9YZ0i4Ic-103" value="return" style="ellipse;whiteSpace=wrap;html=1;" parent="1" vertex="1">
          <mxGeometry x="631.87" y="890" width="120" height="50" as="geometry" />
        </mxCell>
        <mxCell id="5clqC6riAzF0uxc9vkVj-1" value="" style="endArrow=classic;html=1;rounded=0;exitX=0.5;exitY=1;exitDx=0;exitDy=0;entryX=0.5;entryY=0;entryDx=0;entryDy=0;" parent="1" source="RBuKfk1jarJv9YZ0i4Ic-2" target="RBuKfk1jarJv9YZ0i4Ic-6" edge="1">
          <mxGeometry width="50" height="50" relative="1" as="geometry">
            <mxPoint x="290" y="440" as="sourcePoint" />
            <mxPoint x="340" y="390" as="targetPoint" />
            <Array as="points">
              <mxPoint x="275" y="380" />
              <mxPoint x="105" y="380" />
            </Array>
          </mxGeometry>
        </mxCell>
      </root>
    </mxGraphModel>
  </diagram>
</mxfile>
